<svg width="560" height="463" viewBox="0 0 560 463" fill="none" xmlns="http://www.w3.org/2000/svg">
<path opacity="0.3" d="M107.626 47.0563C64.3306 97.5645 66.5787 175.155 41.5979 237.525C28.2507 270.962 4.65341 301.198 0.534488 336.957C-3.4901 371.837 13.2685 408.82 43.1386 430.991C108.161 479.256 189.627 436.043 260.356 436.969C313.462 437.675 364.619 466.781 417.363 462.592C433.558 461.134 449.396 456.993 464.227 450.338C499.123 434.985 527.806 408.326 545.631 374.677C556.4 354.279 561.352 327.433 559.78 304.446C557.39 269.409 554.403 232.614 534.186 202.566C507.303 162.634 463.756 155.918 424.815 133.12C382.761 108.501 354.07 69.7136 318.823 37.9243C278.027 1.20819 213.303 -9.96356 162.666 9.32026C138.597 18.5307 120.958 31.5069 107.626 47.0563Z" fill="url(#paint0_linear_325_3)"/>
<defs>
<linearGradient id="paint0_linear_325_3" x1="264.316" y1="314.047" x2="433.607" y2="308.51" gradientUnits="userSpaceOnUse">
<stop stop-color="#EDB9B9"/>
<stop offset="1" stop-color="#EDB9B9" stop-opacity="0"/>
</linearGradient>
</defs>
</svg>
