<svg width="242" height="354" viewBox="0 0 242 354" fill="none" xmlns="http://www.w3.org/2000/svg">
<path d="M241.88 25.9166V328.026C241.809 334.875 239.014 341.415 234.109 346.209C229.204 351.004 222.59 353.659 215.722 353.592H26.356C21.7987 353.607 17.316 352.439 13.3477 350.204C9.36856 348.014 6.04855 344.803 3.73114 340.903C1.41373 337.004 0.183051 332.558 0.166389 328.026V25.9166C0.241086 19.0636 3.04189 12.5208 7.95303 7.72646C12.8642 2.93216 19.4836 0.278895 26.356 0.349995H112.048V4.14577C112.102 6.58458 112.877 8.95325 114.276 10.9542C115.675 12.9551 117.636 14.499 119.913 15.3919C121.441 15.9926 123.068 16.3013 124.711 16.3017H182.658C185.963 16.302 189.135 15.0059 191.49 12.6932C193.845 10.3806 195.192 7.23708 195.242 3.94187V0.349995H215.69C222.399 0.335237 228.862 2.87044 233.763 7.43962C236.317 9.79794 238.356 12.6558 239.752 15.8349C241.148 19.0139 241.873 22.4459 241.88 25.9166Z" fill="url(#paint0_linear_383_359)"/>
<defs>
<linearGradient id="paint0_linear_383_359" x1="213.28" y1="176.51" x2="108.107" y2="176.51" gradientUnits="userSpaceOnUse">
<stop stop-color="#F7C7C4" stop-opacity="0.75"/>
<stop offset="1" stop-color="white" stop-opacity="0"/>
</linearGradient>
</defs>
</svg>
