<svg width="37" height="73" viewBox="0 0 37 73" fill="none" xmlns="http://www.w3.org/2000/svg">
<path d="M12.3907 71.4428L13.3339 62.6403C8.62533 62.1211 4.15533 60.3008 0.426941 57.384L3.13097 51.7824C6.58809 54.5878 10.7778 56.3465 15.2047 56.8505C21.4932 57.5252 25.9894 54.4341 26.5239 49.4758C27.0584 44.5176 23.9771 41.3638 17.8144 38.0373C9.29362 33.5812 4.23144 28.9839 5.04894 21.4367C5.83499 14.219 11.5575 9.29209 19.7324 8.88413L20.6757 0.0973511L26.0837 0.677898L25.1719 9.1038C29.144 9.58009 32.9302 11.0539 36.1766 13.3873L33.4412 18.9575C30.3403 16.6171 26.6514 15.1781 22.7823 14.7995C16.0694 14.0777 13.1138 17.8121 12.7365 21.2797C12.2492 25.7986 15.2205 28.4033 22.4522 32.3573C31.0359 36.9861 35.029 41.9914 34.243 49.7269C33.5041 56.5994 27.9545 62.5305 18.8835 63.0483L17.9088 72.0861L12.3907 71.4428Z" fill="#F8C244"/>
</svg>
