<svg width="443" height="73" viewBox="0 0 443 73" fill="none" xmlns="http://www.w3.org/2000/svg">
<path d="M442.891 60.1447C438.976 66.2326 431.006 67.99 423.837 69.0884C372.602 76.5101 320.471 70.6574 269.032 64.6636C265.054 64.1929 260.731 63.5652 258.027 60.6311L263.922 55.9239C221.374 61.48 178.388 62.9355 135.56 60.2702C129.491 59.8936 122.889 59.1875 118.613 54.8883C115.657 51.9384 114.242 47.6078 110.956 45.0032C106.492 41.4728 100.109 42.2102 94.465 43.0104C75.8436 45.6529 57.0697 47.0838 38.2622 47.294C24.632 47.4509 9.44546 46.2898 0.154316 36.3105C8.98955 29.5321 19.5227 25.4055 29.8986 21.3416C43.23 16.1323 56.6244 10.9073 70.6318 7.89473C87.5791 4.2388 105.03 3.92497 122.354 3.61116L310.472 0.269036C329.856 -0.0761584 349.413 -0.405672 368.452 3.25026C390.147 7.40828 436.65 26.1901 418.319 54.2293C420.3 54.3862 443.834 58.654 442.891 60.1447Z" fill="url(#paint0_linear_325_4)"/>
<defs>
<linearGradient id="paint0_linear_325_4" x1="230.468" y1="-106.553" x2="209.326" y2="260.708" gradientUnits="userSpaceOnUse">
<stop offset="0.01"/>
<stop offset="0.13" stop-opacity="0.69"/>
<stop offset="0.25" stop-opacity="0.32"/>
<stop offset="1" stop-opacity="0"/>
</linearGradient>
</defs>
</svg>
