<svg width="77" height="15" viewBox="0 0 77 15" fill="none" xmlns="http://www.w3.org/2000/svg">
<path d="M0.883805 5.65402L10.175 5.79528C10.3567 4.58669 10.8292 3.44007 11.552 2.45359C12.2749 1.4671 13.2264 0.670125 14.3253 0.13092L20.488 1.08808C19.425 1.58086 18.501 2.32895 17.7987 3.26541C17.0963 4.20188 16.6376 5.29749 16.4634 6.45426C16.4634 9.12167 20.1736 10.9888 25.4087 11.0516C27.4295 11.2067 29.4599 10.9223 31.3599 10.2179C33.2598 9.51361 34.984 8.4062 36.4134 6.97207C38.4591 4.83522 40.9632 3.18865 43.7377 2.15599C46.5123 1.12332 49.4851 0.731362 52.4331 1.00959C60.0893 1.00959 65.8747 3.42594 67.211 6.87789L76.5021 7.01915V9.34133L67.5568 9.20012C67.4152 10.2066 67.0439 11.1672 66.4715 12.0078C65.8991 12.8484 65.1409 13.5466 64.2554 14.0485L58.2028 13.0286C59.0595 12.5445 59.7903 11.8663 60.3364 11.0487C60.8825 10.2311 61.2287 9.29695 61.347 8.32145C61.347 5.49713 57.1652 4.30463 53.4865 4.24187C51.4973 4.13226 49.5096 4.48147 47.6774 5.26242C45.8453 6.04338 44.2181 7.23508 42.9219 8.74508C38.9916 12.5579 34.1653 14.4251 25.8646 14.4251C18.57 14.4251 11.7156 12.15 10.2693 8.27438L0.69516 8.13317L0.883805 5.65402Z" fill="#F8C244"/>
</svg>
