<svg width="242" height="354" viewBox="0 0 242 354" fill="none" xmlns="http://www.w3.org/2000/svg">
<path opacity="0.8" d="M109.65 2.68071H26.5041H26.4912L26.4782 2.68058C20.2707 2.6163 14.2927 5.01507 9.85815 9.34797C5.42696 13.6776 2.89942 19.5842 2.82854 25.7704V327.97C2.84435 332.056 3.95322 336.064 6.04097 339.58C8.12951 343.097 11.122 345.994 14.7094 347.971L14.7199 347.977L14.7304 347.983C18.3193 350.006 22.3739 351.063 26.4962 351.05L26.5041 351.05H215.768H215.78L215.792 351.05C221.995 351.111 227.968 348.71 232.397 344.377C236.823 340.048 239.345 334.144 239.412 327.962L239.412 25.7615L239.412 25.7565M109.65 2.68071L241.912 25.7565H239.412M109.65 2.68071V3.97785V4.00522L109.651 4.03258C109.715 6.966 110.646 9.81463 112.328 12.2206C114.009 14.6264 116.364 16.4821 119.097 17.5551C120.915 18.2703 122.851 18.6376 124.805 18.6381H124.806H182.722C182.722 18.6381 182.722 18.6381 182.722 18.6381C186.68 18.6385 190.481 17.0848 193.302 14.3112C196.123 11.5373 197.739 7.76591 197.799 3.81145L197.799 3.79266V3.77388V2.68071L215.736 2.68072L215.742 2.68071C221.813 2.66734 227.661 4.96357 232.094 9.10073L232.103 9.10871C234.403 11.2347 236.239 13.8107 237.496 16.6759C238.753 19.5395 239.405 22.6306 239.412 25.7565M109.65 2.68071L239.412 25.7565" stroke="#F7F7F7" stroke-width="5"/>
</svg>
