<svg width="196" height="377" viewBox="0 0 196 377" fill="none" xmlns="http://www.w3.org/2000/svg">
<path d="M195.077 28.5702V348.895C195.077 356.315 192.124 363.431 186.867 368.677C181.61 373.924 174.481 376.871 167.047 376.871H28.1353C24.449 376.88 20.7972 376.162 17.3891 374.76C13.981 373.358 10.8835 371.298 8.27396 368.7C5.66441 366.101 3.59405 363.014 2.18145 359.616C0.768846 356.217 0.0417432 352.574 0.0417525 348.895V28.5702C0.0396872 24.8949 0.763195 21.2553 2.17094 17.8592C3.57869 14.4631 5.64309 11.3772 8.24618 8.77767C10.8493 6.17816 13.94 4.11602 17.3419 2.70909C20.7438 1.30216 24.39 0.578012 28.0724 0.578012H166.984C170.671 0.569755 174.324 1.28782 177.734 2.69105C181.143 4.09428 184.241 6.1551 186.851 8.75544C189.46 11.3558 191.53 14.4445 192.942 17.8447C194.354 21.2449 195.079 24.8896 195.077 28.5702Z" fill="#EDB9B9"/>
</svg>
