<svg width="49" height="61" viewBox="0 0 49 61" fill="none" xmlns="http://www.w3.org/2000/svg">
<path d="M43.7662 60.654L38.311 53.6874C34.5664 56.5863 30.0856 58.385 25.3726 58.881L23.4075 52.9656C27.8469 52.5969 32.0869 50.963 35.6227 48.2584C40.5749 44.4142 41.6753 39.0323 38.594 35.0939C35.5127 31.1556 31.1108 31.0458 24.4451 32.9286C15.2325 35.6588 8.39384 35.8785 3.70897 29.8846C-0.771537 24.1575 -0.0798059 16.6417 5.46973 10.6479L0.0302429 3.68123L4.32209 0.339111L9.54148 7.02333C12.7214 4.60563 16.465 3.03445 20.4205 2.45736L22.3384 8.40411C18.4794 8.87541 14.8274 10.4073 11.7896 12.8289C6.46015 16.9712 6.9475 21.6941 9.08557 24.4557C11.8996 28.0331 15.8613 27.8449 23.8005 25.6639C33.2331 23.0121 39.5215 23.7967 44.3794 29.9474C48.6398 35.3921 48.8284 43.4728 42.6343 50.1727L48.231 57.359L43.7662 60.654Z" fill="#F8C244"/>
</svg>
