<svg width="97" height="186" viewBox="0 0 97 186" fill="none" xmlns="http://www.w3.org/2000/svg">
<path d="M96.4937 151.519C92.6712 140.819 81.4732 154.951 81.4732 154.951C81.4732 154.951 94.9647 126.298 81.4732 119.801C74.818 116.597 71.3159 120.367 69.4743 125.01C76.3774 83.3469 77.8671 2.99073 50.0045 0.192057C19.5695 -2.86505 29.983 74.3268 29.983 74.3268C29.983 74.3268 21.5736 52.1628 10.8712 62.0984C0.168935 72.034 20.8091 136.997 20.8091 136.997C18.5156 130.119 6.28375 124.769 1.6968 136.997C-2.89014 149.226 14.6931 175.211 14.6931 175.211L75.0879 185.147C75.0879 185.147 100.316 162.219 96.4937 151.519Z" fill="#555555"/>
</svg>
