<svg width="77" height="15" viewBox="0 0 77 15" fill="none" xmlns="http://www.w3.org/2000/svg">
<path d="M1.17442 5.7244L10.4656 5.86561C10.6473 4.65702 11.1199 3.5104 11.8427 2.52393C12.5655 1.53745 13.5171 0.740467 14.6159 0.201263L20.7786 1.15842C19.7135 1.65032 18.7871 2.39783 18.0821 3.33422C17.3771 4.27061 16.9154 5.36674 16.7383 6.52463C16.7383 9.19204 20.4642 11.0592 25.6993 11.1063C27.7205 11.2656 29.7521 10.9832 31.6527 10.2786C33.5533 9.57402 35.2772 8.46428 36.704 7.0267C38.7526 4.89454 41.2575 3.25218 44.0316 2.2224C46.8057 1.19262 49.7772 0.802089 52.7238 1.07998C60.3642 1.07998 66.1653 3.48063 67.5016 6.94826L76.7928 7.08947V9.4117L67.8475 9.27049C67.7024 10.2759 67.3298 11.235 66.7577 12.0752C66.1857 12.9153 65.4293 13.6142 64.546 14.1189L58.4934 13.099C59.3501 12.6148 60.081 11.9366 60.6271 11.119C61.1732 10.3014 61.5193 9.36727 61.6376 8.39177C61.6376 5.55177 57.4715 4.35932 53.7771 4.31225C51.7857 4.20378 49.796 4.55344 47.9616 5.33424C46.1271 6.11503 44.4969 7.30607 43.1968 8.81545C39.2823 12.6126 34.4559 14.4955 26.1552 14.4955C18.8449 14.4955 12.0062 12.2203 10.5599 8.32905L0.985779 8.18784L1.17442 5.7244Z" fill="#F8C244"/>
</svg>
