<svg width="77" height="16" viewBox="0 0 77 16" fill="none" xmlns="http://www.w3.org/2000/svg">
<path d="M1.09168 6.38563L10.3828 6.52684C10.5622 5.31545 11.0336 4.16565 11.7566 3.17627C12.4795 2.18688 13.4324 1.38748 14.5332 0.846802L20.6958 1.81964C19.6328 2.31011 18.7076 3.05522 18.0027 3.98869C17.2979 4.92217 16.8351 6.01507 16.6555 7.17016C16.6555 9.83757 20.3814 11.7047 25.6165 11.7675C27.6373 11.9226 29.6678 11.6382 31.5678 10.9338C33.4677 10.2295 35.1919 9.12205 36.6213 7.68793C38.669 5.55388 41.1735 3.90921 43.9474 2.87675C46.7214 1.84429 49.6933 1.45074 52.641 1.7255C60.2815 1.7255 66.0825 4.14184 67.4188 7.59379L76.71 7.73502V10.0729L67.7647 9.93171C67.6197 10.9371 67.247 11.8963 66.675 12.7364C66.1029 13.5765 65.3465 14.2754 64.4633 14.7801L58.4107 13.7602C59.2674 13.276 59.9982 12.5979 60.5443 11.7803C61.0904 10.9627 61.4366 10.0285 61.5549 9.05303C61.5549 6.21302 57.3888 5.02053 53.6944 4.95777C51.7015 4.84882 49.7102 5.19983 47.8753 5.98354C46.0403 6.76726 44.4111 7.96257 43.1141 9.47666C39.1995 13.2738 34.3732 15.141 26.0725 15.141C18.7622 15.141 11.9235 12.8815 10.4772 8.99026L0.903015 8.84905L1.09168 6.38563Z" fill="#F8C244"/>
</svg>
